<svg width="68" height="68" viewBox="0 0 68 68" fill="none" xmlns="http://www.w3.org/2000/svg">
<rect width="68" height="68" fill="#FBFBFF"/>
<path d="M22.9171 36.4625C26.5047 37.5841 30.2416 38.1553 34.0004 38.1567C37.7593 38.1553 41.4962 37.5841 45.0838 36.4625C45.3681 36.3741 45.5836 36.1407 45.6492 35.8502C45.7148 35.5598 45.6205 35.2564 45.4017 35.0544C45.183 34.8524 44.8731 34.7824 44.5888 34.8708C37.6966 37.0292 30.3093 37.0292 23.4171 34.8708C22.9776 34.7341 22.5104 34.9796 22.3738 35.4192C22.2371 35.8587 22.4826 36.3258 22.9221 36.4625H22.9171Z" fill="#2D3161"/>
<path d="M23.0381 31.49C26.665 32.0509 30.3298 32.3312 33.9998 32.3283C37.6698 32.3312 41.3346 32.0509 44.9615 31.49C45.2585 31.4473 45.5096 31.2482 45.6189 30.9688C45.7283 30.6893 45.6789 30.3727 45.4897 30.1397C45.3005 29.9068 45.0007 29.7936 44.7048 29.8433C37.6099 30.935 30.3897 30.935 23.2948 29.8433C22.8431 29.7784 22.4231 30.0889 22.3528 30.5398C22.2825 30.9908 22.5881 31.4144 23.0381 31.49Z" fill="#2D3161"/>
<path d="M44.474 40.75C37.8645 43.9792 30.1351 43.9792 23.5256 40.75C23.2547 40.5978 22.9217 40.609 22.6616 40.779C22.4016 40.949 22.2576 41.2495 22.2882 41.5587C22.3189 41.8678 22.5189 42.1343 22.8073 42.25C29.8701 45.7001 38.1294 45.7001 45.1923 42.25C45.4807 42.1343 45.6807 41.8678 45.7113 41.5587C45.742 41.2495 45.598 40.949 45.338 40.779C45.0779 40.609 44.7448 40.5978 44.474 40.75Z" fill="#2D3161"/>
<path d="M55.6667 24H51.3467C50.9948 23.0047 50.0556 22.3377 49 22.3333H47.7417C44.6468 22.2929 41.7349 20.8604 39.8142 18.4333C38.3912 16.6838 36.256 15.6681 34.0008 15.6681C31.7457 15.6681 29.6104 16.6838 28.1875 18.4333C26.2663 20.8607 23.3537 22.2933 20.2583 22.3333H19C17.9443 22.3377 17.0052 23.0047 16.6533 24H12.3333C10.4924 24 9 25.4924 9 27.3333V31.5C9 35.88 12.9217 39.9108 17.6817 40.5675C20.0317 46.9909 25.8255 51.5224 32.6258 52.2558C33.5396 52.3592 34.4621 52.3592 35.3758 52.2558C42.1755 51.5218 47.9685 46.9904 50.3183 40.5675C55.0783 39.9108 59 35.88 59 31.5V27.3333C59 25.4924 57.5076 24 55.6667 24ZM19 24H20.2583C23.8558 23.9599 27.2436 22.3007 29.4808 19.4833C30.5869 18.1223 32.2474 17.3321 34.0012 17.3321C35.7551 17.3321 37.4155 18.1223 38.5217 19.4833C40.7581 22.3004 44.145 23.9596 47.7417 24H49C49.4602 24 49.8333 24.3731 49.8333 24.8333V25.6667L47.3333 25.6625H47.3167C43.353 25.5559 39.6474 23.6725 37.225 20.5333C36.4344 19.5617 35.2479 18.9983 33.9953 18.9998C32.7427 19.0012 31.5575 19.5674 30.7692 20.5408C28.3478 23.6755 24.6454 25.5555 20.6858 25.6608H20.6667L18.1667 25.6667V24.8333C18.1667 24.3731 18.5398 24 19 24ZM10.6667 31.5V27.3333C10.6667 26.4129 11.4129 25.6667 12.3333 25.6667H16.5V34C16.5026 35.6097 16.7113 37.2124 17.1208 38.7692C13.81 37.9717 10.6667 35.1433 10.6667 31.5ZM35.2017 50.5983C34.4031 50.6883 33.5969 50.6883 32.7983 50.5983C26.4665 49.9072 21.1166 45.5926 19.1 39.5508V39.5425C18.485 37.7592 18.1696 35.8864 18.1667 34V27.3333L20.6667 27.3292C25.1378 27.242 29.3285 25.133 32.0625 21.5942C32.5346 21.0098 33.2451 20.6697 33.9963 20.6684C34.7475 20.6671 35.4592 21.0048 35.9333 21.5875C38.6711 25.1147 42.8504 27.2231 47.3142 27.3292H47.3333L49.8333 27.3333V34C49.831 35.8857 49.5164 37.7579 48.9025 39.5408V39.5492C46.886 45.5923 41.5349 49.9078 35.2017 50.5983ZM57.3333 31.5C57.3333 35.1433 54.19 37.9717 50.8792 38.7708C51.2889 37.2136 51.4975 35.6103 51.5 34V25.6667H55.6667C56.5871 25.6667 57.3333 26.4129 57.3333 27.3333V31.5Z" fill="#2D3161"/>
</svg>
