<svg width="68" height="68" viewBox="0 0 68 68" fill="none" xmlns="http://www.w3.org/2000/svg">
<rect width="68" height="68" fill="#FBFBFF"/>
<path d="M31.2998 20H36.6998" stroke="#2D3161" stroke-width="2" stroke-miterlimit="10" stroke-linejoin="round"/>
<path d="M40 58C46.6 58 54 55 54 46C54 31 36.7 20 36.7 20L41.3 13.1C41.3 13.1 41 11 38.7 11C36.4 11 36.1 10 34 10C31.9 10 31.6 11 29.3 11C27 11 26.7 13.1 26.7 13.1L31.3 20C31.3 20 14 31 14 46C14 55 21.4 58 28 58H40Z" stroke="#2D3161" stroke-width="2" stroke-miterlimit="10" stroke-linecap="round" stroke-linejoin="round"/>
<path d="M29 45C29 45 29.3 48 34 48C37.4 48 39 46.3 39 44.3C39 42 37.2 40.8 34 40C30.8 39.2 29 38.1 29 35.7C29 33.7 30.6 32 34 32C38.7 32 39 35 39 35" stroke="#2D3161" stroke-width="2" stroke-miterlimit="10" stroke-linecap="round" stroke-linejoin="round"/>
<path d="M34 29V32" stroke="#2D3161" stroke-width="2" stroke-miterlimit="10" stroke-linejoin="round"/>
<path d="M34 51V48" stroke="#2D3161" stroke-width="2" stroke-miterlimit="10" stroke-linejoin="round"/>
</svg>
