<svg width="68" height="68" viewBox="0 0 68 68" fill="none" xmlns="http://www.w3.org/2000/svg">
<rect width="68" height="68" fill="#FBFBFF"/>
<path d="M34 46C43.9411 46 52 37.9411 52 28C52 18.0589 43.9411 10 34 10C24.0589 10 16 18.0589 16 28C16 37.9411 24.0589 46 34 46Z" stroke="#2D3161" stroke-width="2" stroke-miterlimit="10" stroke-linecap="round" stroke-linejoin="round"/>
<path d="M44.1 52.6L40 45" stroke="#2D3161" stroke-width="2" stroke-miterlimit="10" stroke-linejoin="round"/>
<path d="M47.5996 50.7L43.5996 43.2" stroke="#2D3161" stroke-width="2" stroke-miterlimit="10" stroke-linejoin="round"/>
<path d="M36 45.9L42.4 58L44.9 49.9L53 52.4L46.8 40.7" stroke="#2D3161" stroke-width="2" stroke-miterlimit="10" stroke-linejoin="round"/>
<path d="M23.9004 52.6L28.0004 45" stroke="#2D3161" stroke-width="2" stroke-miterlimit="10" stroke-linejoin="round"/>
<path d="M20.4004 50.7L24.4004 43.2" stroke="#2D3161" stroke-width="2" stroke-miterlimit="10" stroke-linejoin="round"/>
<path d="M32 45.9L25.6 58L23.1 49.9L15 52.4L21.2 40.7" stroke="#2D3161" stroke-width="2" stroke-miterlimit="10" stroke-linejoin="round"/>
<path d="M43.7002 25.4L39.1002 29.7L40.4002 36C40.5002 36.3 40.3002 36.6 40.1002 36.8C40.0002 36.9 39.9002 37 39.7002 37C39.6002 37 39.4002 37 39.3002 36.9L34.0002 33.6L28.7002 36.9C28.4002 37.1 28.1002 37.1 27.8002 36.9C27.5002 36.7 27.4002 36.4 27.5002 36.1L28.8002 29.8L24.2002 25.5C24.0002 25.3 23.9002 24.9 24.0002 24.6C24.1002 24.3 24.4002 24.1 24.7002 24L30.8002 23.4L33.3002 17.5C33.4002 17.2 33.7002 17 34.0002 17C34.3002 17 34.6002 17.2 34.7002 17.5L37.2002 23.4L43.3002 24C43.6002 24 43.9002 24.3 44.0002 24.6C44.1002 24.9 44.0002 25.2 43.7002 25.4Z" stroke="#2D3161" stroke-width="2" stroke-miterlimit="10" stroke-linecap="round" stroke-linejoin="round"/>
</svg>
