<svg width="68" height="68" viewBox="0 0 68 68" fill="none" xmlns="http://www.w3.org/2000/svg">
<rect width="68" height="68" fill="#FBFBFF"/>
<g clip-path="url(#clip0)">
<path d="M43.9003 21.1C43.7003 20.6 43.3003 20.3 42.8003 20.2L33.0003 19.2L29.1003 9.7C29.0003 9.3 28.5003 9 28.0003 9C27.5003 9 27.0003 9.3 26.8003 9.8L22.9003 19.3L13.1003 20.3C12.6003 20.3 12.2003 20.7 12.0003 21.2C11.8003 21.7 12.0003 22.2 12.4003 22.6L19.8003 29.4L17.7003 39.5C17.6003 40 17.8003 40.5 18.2003 40.8C18.6003 41.1 19.1003 41.1 19.6003 40.9L28.1003 35.7L36.6003 40.9C36.8003 41 37.0003 41.1 37.2003 41.1C37.5003 41.1 37.7003 41 37.9003 40.9C38.3003 40.6 38.5003 40.1 38.4003 39.6L36.3003 29.5L43.7003 22.7C44.0003 22.2 44.1003 21.6 43.9003 21.1Z" stroke="#2D3161" stroke-width="2" stroke-miterlimit="10" stroke-linejoin="round"/>
<path d="M56.3996 37.5L53.9996 32.7C52.6996 30 49.6996 28.6 46.6996 29.2L37.8996 31L33.4996 22.2C32.7996 20.8 31.5996 19.8 30.1996 19.3C28.6996 18.8 27.1996 18.9 25.7996 19.6C24.3996 20.3 23.3996 21.5 22.8996 22.9C22.3996 24.4 22.4996 25.9 23.1996 27.3L28.9996 38.9C27.1996 38.5 25.1996 39 23.6996 40.3C22.0996 41.7 21.2996 43.9 21.6996 46C21.9996 47.8 22.9996 49.3 24.4996 50.2L38.8996 59.4C39.4996 59.8 40.2996 60 40.9996 60C41.5996 60 42.1996 59.9 42.6996 59.6L55.6996 53.1C56.8996 52.5 57.6996 51.3 57.8996 49.9C57.9996 48.5 58.3996 41.5 56.3996 37.5Z" fill="#FBFBFF"/>
<path d="M47.3 32.1L36.2 34.4L30.8 23.6C30.1 22.3 28.5 21.7 27.2 22.4C25.9 23 25.3 24.6 26 26L34.2 42.5C34.7 43.5 34.6 44.2 34.5 44.8L29.4 42.2C28.2 41.5 26.8 41.7 25.8 42.6C25 43.3 24.6 44.4 24.8 45.5C25 46.4 25.5 47.2 26.3 47.7L40.7 56.9C41 57.1 41.3 57.1 41.6 56.9L54.6 50.4C54.9 50.3 55.1 50 55.1 49.7C55.1 49.4 55.6 42.3 53.9 38.9L51.5 34.1C50.6 32.6 48.9 31.8 47.3 32.1Z" stroke="#2D3161" stroke-width="2" stroke-miterlimit="10" stroke-linejoin="round"/>
</g>
<defs>
<clipPath id="clip0">
<rect width="48" height="52" fill="white" transform="translate(10 8)"/>
</clipPath>
</defs>
</svg>
