<svg width="22" height="16" viewBox="0 0 22 16" fill="none" xmlns="http://www.w3.org/2000/svg">
<path fill-rule="evenodd" clip-rule="evenodd" d="M0.846154 0C0.62174 0 0.406517 0.0936507 0.247833 0.26035C0.0891481 0.427049 0 0.653141 0 0.888889C0 1.12464 0.0891481 1.35073 0.247833 1.51743C0.406517 1.68413 0.62174 1.77778 0.846154 1.77778H21.1538C21.3783 1.77778 21.5935 1.68413 21.7522 1.51743C21.9109 1.35073 22 1.12464 22 0.888889C22 0.653141 21.9109 0.427049 21.7522 0.26035C21.5935 0.0936507 21.3783 0 21.1538 0H0.846154ZM0 8C0 7.76425 0.0891481 7.53816 0.247833 7.37146C0.406517 7.20476 0.62174 7.11111 0.846154 7.11111H21.1538C21.3783 7.11111 21.5935 7.20476 21.7522 7.37146C21.9109 7.53816 22 7.76425 22 8C22 8.23575 21.9109 8.46184 21.7522 8.62854C21.5935 8.79524 21.3783 8.88889 21.1538 8.88889H0.846154C0.62174 8.88889 0.406517 8.79524 0.247833 8.62854C0.0891481 8.46184 0 8.23575 0 8ZM0 15.1111C0 14.8754 0.0891481 14.6493 0.247833 14.4826C0.406517 14.3159 0.62174 14.2222 0.846154 14.2222H21.1538C21.3783 14.2222 21.5935 14.3159 21.7522 14.4826C21.9109 14.6493 22 14.8754 22 15.1111C22 15.3469 21.9109 15.573 21.7522 15.7397C21.5935 15.9064 21.3783 16 21.1538 16H0.846154C0.62174 16 0.406517 15.9064 0.247833 15.7397C0.0891481 15.573 0 15.3469 0 15.1111Z" fill="white"/>
</svg>
