<svg width="14" height="14" viewBox="0 0 14 14" fill="none" xmlns="http://www.w3.org/2000/svg">
<path d="M5.35742 2.24188H8.36264" stroke="#443296" stroke-width="0.47" stroke-miterlimit="10" stroke-linecap="round" stroke-linejoin="round"/>
<path d="M1.60156 3.24345H12.1198" stroke="#443296" stroke-width="0.57" stroke-miterlimit="10" stroke-linejoin="round"/>
<path d="M4.85742 10.0054H8.86438" stroke="#443296" stroke-width="0.57" stroke-miterlimit="10" stroke-linecap="round" stroke-linejoin="round"/>
<path d="M10.1152 11.5079V12.2592C10.1152 12.5347 10.3406 12.7601 10.6161 12.7601H11.117C11.3925 12.7601 11.6178 12.5347 11.6178 12.2592V11.5079" stroke="#443296" stroke-width="0.57" stroke-miterlimit="10" stroke-linejoin="round"/>
<path d="M2.10156 11.5079V12.2592C2.10156 12.5347 2.32695 12.7601 2.60243 12.7601H3.1033C3.37878 12.7601 3.60417 12.5347 3.60417 12.2592V11.5079" stroke="#443296" stroke-width="0.57" stroke-miterlimit="10" stroke-linejoin="round"/>
<path d="M2.85439 10.5062C3.13101 10.5062 3.35526 10.2819 3.35526 10.0053C3.35526 9.7287 3.13101 9.50446 2.85439 9.50446C2.57776 9.50446 2.35352 9.7287 2.35352 10.0053C2.35352 10.2819 2.57776 10.5062 2.85439 10.5062Z" stroke="#443296" stroke-width="0.47" stroke-miterlimit="10" stroke-linejoin="round"/>
<path d="M10.8681 10.5062C11.1447 10.5062 11.3689 10.2819 11.3689 10.0053C11.3689 9.7287 11.1447 9.50446 10.8681 9.50446C10.5914 9.50446 10.3672 9.7287 10.3672 10.0053C10.3672 10.2819 10.5914 10.5062 10.8681 10.5062Z" stroke="#443296" stroke-width="0.47" stroke-miterlimit="10" stroke-linejoin="round"/>
<path d="M11.619 11.5078H2.10243C1.82695 11.5078 1.60156 11.2824 1.60156 11.0069V2.7426C1.60156 1.91616 2.27774 1.23999 3.10417 1.23999H10.6172C11.4436 1.23999 12.1198 1.91616 12.1198 2.7426V11.0069C12.1198 11.2824 11.8944 11.5078 11.619 11.5078Z" stroke="#443296" stroke-width="0.57" stroke-miterlimit="10" stroke-linejoin="round"/>
<path d="M1.60135 6.24873H1.10048C0.825001 6.24873 0.599609 6.02334 0.599609 5.74786V4.24525C0.599609 3.96978 0.825001 3.74438 1.10048 3.74438H1.60135" stroke="#443296" stroke-width="0.57" stroke-miterlimit="10" stroke-linejoin="round"/>
<path d="M12.1191 3.74438H12.62C12.8955 3.74438 13.1209 3.96978 13.1209 4.24525V5.74786C13.1209 6.02334 12.8955 6.24873 12.62 6.24873H12.1191" stroke="#443296" stroke-width="0.57" stroke-miterlimit="10" stroke-linejoin="round"/>
<path d="M1.60156 7.75131L1.97721 7.87653C2.22765 7.95166 2.50313 8.00175 2.77861 8.00175H10.9929C11.2683 8.00175 11.5188 7.95166 11.7943 7.87653L12.1699 7.75131" stroke="#443296" stroke-width="0.57" stroke-miterlimit="10" stroke-linecap="round" stroke-linejoin="round"/>
</svg>
