<svg width="77" height="78" viewBox="0 0 77 78" fill="none" xmlns="http://www.w3.org/2000/svg">
<path d="M75.5 33.5L75.0119 33.3915L75.5 33.5ZM5.60084 74.1989C5.43454 74.4193 5.47843 74.7329 5.69888 74.8992L9.2913 77.6092C9.51175 77.7755 9.82528 77.7316 9.99158 77.5112C10.1579 77.2907 10.114 76.9772 9.89354 76.8109L6.70028 74.402L9.10923 71.2087C9.27553 70.9883 9.23164 70.6747 9.01119 70.5084C8.79074 70.3421 8.47722 70.386 8.31091 70.6065L5.60084 74.1989ZM-4.27599e-07 1.5C1.02762 1.5 2.12788 1.50155 3.29174 1.50733L3.29671 0.507343C2.13064 0.501549 1.0286 0.500001 4.27599e-07 0.5L-4.27599e-07 1.5ZM9.93547 1.59101C12.0392 1.63569 14.2568 1.70182 16.5541 1.79939L16.5966 0.800293C14.2912 0.702377 12.0664 0.63604 9.9567 0.591234L9.93547 1.59101ZM23.1663 2.16282C25.3358 2.31092 27.5436 2.49185 29.765 2.71283L29.864 1.71774C27.6312 1.49563 25.4131 1.31387 23.2345 1.16514L23.1663 2.16282ZM36.3369 3.48814C38.5315 3.79079 40.7151 4.13926 42.8642 4.54041L43.0476 3.55739C40.8813 3.15301 38.6819 2.80208 36.4735 2.49751L36.3369 3.48814ZM49.3179 5.94237C51.5045 6.49176 53.6231 7.1085 55.6455 7.80067L55.9693 6.85455C53.917 6.15214 51.7713 5.52772 49.5616 4.97252L49.3179 5.94237ZM61.7383 10.2751C63.7973 11.2688 65.6845 12.3724 67.3587 13.5972L67.9491 12.7901C66.2178 11.5234 64.2766 10.3897 62.1729 9.37449L61.7383 10.2751ZM72.0376 18.072C73.3604 19.7901 74.3471 21.6836 74.9378 23.7729L75.9001 23.5008C75.2721 21.2798 74.2243 19.273 72.8299 17.4619L72.0376 18.072ZM75.5075 30.1695C75.4231 31.2031 75.2597 32.2766 75.0119 33.3915L75.9881 33.6084C76.2451 32.4517 76.4158 31.3329 76.5042 30.2509L75.5075 30.1695ZM75.0119 33.3915C74.764 34.5071 74.4291 35.605 74.013 36.6847L74.9461 37.0443C75.3793 35.9203 75.7289 34.7747 75.9881 33.6084L75.0119 33.3915ZM70.7237 42.7522C69.4394 44.5786 67.9261 46.3416 66.2195 48.0377L66.9244 48.747C68.6667 47.0155 70.2193 45.2081 71.5417 43.3274L70.7237 42.7522ZM60.9573 52.6142C59.1554 54.0012 57.2302 55.3315 55.2078 56.6027L55.74 57.4494C57.7862 56.1631 59.7376 54.8149 61.5673 53.4067L60.9573 52.6142ZM49.1415 60.0964C47.0966 61.1781 44.9892 62.2055 42.8409 63.1769L43.2529 64.0881C45.4186 63.1088 47.5446 62.0723 49.6091 60.9804L49.1415 60.0964ZM36.3726 65.8909C34.184 66.7421 31.9765 67.5363 29.7714 68.2717L30.0878 69.2204C32.3078 68.48 34.5306 67.6803 36.7351 66.8229L36.3726 65.8909ZM23.061 70.3344C20.76 70.9826 18.4859 71.5631 16.2638 72.0738L16.4877 73.0484C18.7259 72.534 21.0157 71.9495 23.3322 71.2969L23.061 70.3344ZM9.3831 73.4636C8.20552 73.6672 7.05322 73.8477 5.93068 74.0048L6.06932 74.9952C7.2029 74.8365 8.36577 74.6543 9.5534 74.449L9.3831 73.4636Z" fill="#443296"/>
</svg>
