<svg width="9" height="10" viewBox="0 0 9 10" fill="none" xmlns="http://www.w3.org/2000/svg">
<path d="M1.125 2.75H1.875H7.875" stroke="#EB5757" stroke-width="0.5" stroke-linecap="round" stroke-linejoin="round"/>
<path d="M3 2.75V2C3 1.80109 3.07902 1.61032 3.21967 1.46967C3.36032 1.32902 3.55109 1.25 3.75 1.25H5.25C5.44891 1.25 5.63968 1.32902 5.78033 1.46967C5.92098 1.61032 6 1.80109 6 2V2.75M7.125 2.75V8C7.125 8.19891 7.04598 8.38968 6.90533 8.53033C6.76468 8.67098 6.57391 8.75 6.375 8.75H2.625C2.42609 8.75 2.23532 8.67098 2.09467 8.53033C1.95402 8.38968 1.875 8.19891 1.875 8V2.75H7.125Z" stroke="#EB5757" stroke-width="0.5" stroke-linecap="round" stroke-linejoin="round"/>
<path d="M3.75 4.625V6.875" stroke="#EB5757" stroke-width="0.5" stroke-linecap="round" stroke-linejoin="round"/>
<path d="M5.25 4.625V6.875" stroke="#EB5757" stroke-width="0.5" stroke-linecap="round" stroke-linejoin="round"/>
</svg>
