<svg width="24" height="24" viewBox="0 0 24 24" fill="none" xmlns="http://www.w3.org/2000/svg">
<path d="M13.3879 11.4532L20.2729 4.56821C20.4276 4.38754 20.5085 4.15513 20.4993 3.91744C20.4901 3.67974 20.3916 3.45427 20.2234 3.28607C20.0552 3.11787 19.8297 3.01933 19.592 3.01015C19.3543 3.00097 19.1219 3.08182 18.9412 3.23654L12.0562 10.1215L5.17124 3.2271C4.99056 3.07237 4.75816 2.99152 4.52046 3.0007C4.28277 3.00989 4.05729 3.10842 3.88909 3.27662C3.72089 3.44482 3.62236 3.6703 3.61318 3.90799C3.60399 4.14569 3.68484 4.37809 3.83957 4.55876L10.7246 11.4532L3.83012 18.3382C3.73126 18.4229 3.65096 18.5271 3.59427 18.6442C3.53758 18.7614 3.50573 18.889 3.5007 19.0191C3.49568 19.1492 3.5176 19.2789 3.56508 19.4001C3.61256 19.5213 3.68458 19.6313 3.77662 19.7234C3.86866 19.8154 3.97873 19.8874 4.09993 19.9349C4.22113 19.9824 4.35083 20.0043 4.4809 19.9993C4.61097 19.9943 4.73859 19.9624 4.85576 19.9057C4.97294 19.849 5.07712 19.7687 5.16179 19.6699L12.0562 12.7849L18.9412 19.6699C19.1219 19.8246 19.3543 19.9054 19.592 19.8963C19.8297 19.8871 20.0552 19.7886 20.2234 19.6204C20.3916 19.4522 20.4901 19.2267 20.4993 18.989C20.5085 18.7513 20.4276 18.5189 20.2729 18.3382L13.3879 11.4532Z" fill="white"/>
</svg>
