<svg width="12" height="11" viewBox="0 0 12 11" fill="none" xmlns="http://www.w3.org/2000/svg">
<path d="M3.49797 7.11266C3.76112 7.11266 3.97445 6.89933 3.97445 6.63618C3.97445 6.37303 3.76112 6.1597 3.49797 6.1597C3.23481 6.1597 3.02148 6.37303 3.02148 6.63618C3.02148 6.89933 3.23481 7.11266 3.49797 7.11266Z" fill="#443296"/>
<path d="M8.50187 7.11266C8.76502 7.11266 8.97835 6.89933 8.97835 6.63618C8.97835 6.37303 8.76502 6.1597 8.50187 6.1597C8.23872 6.1597 8.02539 6.37303 8.02539 6.63618C8.02539 6.89933 8.23872 7.11266 8.50187 7.11266Z" fill="#443296"/>
<path d="M12 6.43393C12 5.74373 11.4997 5.16859 10.8428 5.05106V4.8428C10.8428 2.17246 8.67032 0 6.00002 0C3.32968 0 1.15722 2.17246 1.15722 4.8428V5.05106C0.500291 5.16863 0 5.74376 0 6.43393C0 7.13007 0.50891 7.70927 1.17418 7.81983C1.26781 8.88682 1.75598 9.67496 2.6296 10.1654C3.40651 10.6016 4.50894 10.8136 6.00002 10.8136C7.49106 10.8136 8.59352 10.6016 9.37044 10.1654C10.244 9.67496 10.7322 8.88686 10.8258 7.81983C11.4911 7.7093 12 7.13007 12 6.43393ZM0.496074 6.43393C0.496074 6.01862 0.776108 5.66771 1.15719 5.55944V7.30841C0.776108 7.20017 0.496074 6.84926 0.496074 6.43393ZM10.3467 7.42948C10.3467 8.51883 9.94793 9.27227 9.12758 9.73285C8.42678 10.1263 7.40375 10.3175 6.00002 10.3175C4.59628 10.3175 3.57322 10.1263 2.87245 9.73285C2.05207 9.27227 1.65329 8.51883 1.65329 7.42948V4.8428C1.65329 2.87993 2.96122 1.21709 4.75121 0.679187C6.11489 0.696426 6.84114 1.68082 6.84114 2.39362C6.84114 2.93955 6.397 3.38372 5.85104 3.38372C5.44165 3.38372 5.10857 3.05064 5.10857 2.64125C5.10857 2.3411 5.35276 2.09687 5.65295 2.09687C5.78993 2.09687 5.90099 1.98582 5.90099 1.84884C5.90099 1.71186 5.78993 1.6008 5.65295 1.6008C5.07924 1.6008 4.6125 2.06754 4.6125 2.64125C4.6125 3.32419 5.1681 3.8798 5.85104 3.8798C6.67052 3.8798 7.33721 3.2131 7.33721 2.39362C7.33721 1.87879 7.07854 1.32489 6.64528 0.911908C6.47197 0.746715 6.27478 0.607846 6.05961 0.496849C8.42898 0.528908 10.3467 2.46595 10.3467 4.8428V7.42948ZM10.8428 7.30844V5.55947C11.2239 5.66774 11.5039 6.01865 11.5039 6.43396C11.5039 6.84926 11.2239 7.20017 10.8428 7.30844Z" fill="#443296"/>
<path d="M6.95916 7.31929C6.43025 7.84826 5.56953 7.84826 5.04062 7.31929C4.94373 7.22243 4.78672 7.22243 4.68983 7.31929C4.59297 7.41615 4.59297 7.57322 4.68983 7.67008C5.05101 8.03125 5.52547 8.21186 5.9999 8.21186C6.47434 8.21186 6.94877 8.03125 7.30998 7.67008C7.40683 7.57322 7.40683 7.41615 7.30998 7.31929C7.21305 7.22243 7.05605 7.22243 6.95916 7.31929Z" fill="#443296"/>
</svg>
