<svg width="32" height="32" viewBox="0 0 32 32" fill="none" xmlns="http://www.w3.org/2000/svg">
<path d="M17.2533 16L23.7333 9.52003C23.8789 9.34998 23.955 9.13125 23.9464 8.90754C23.9377 8.68382 23.845 8.47161 23.6867 8.31331C23.5284 8.155 23.3162 8.06226 23.0924 8.05362C22.8687 8.04498 22.65 8.12107 22.4799 8.2667L15.9999 14.7467L9.51995 8.25781C9.3499 8.11218 9.13117 8.03609 8.90746 8.04473C8.68375 8.05337 8.47153 8.14611 8.31323 8.30442C8.15492 8.46272 8.06218 8.67494 8.05354 8.89865C8.0449 9.12236 8.12099 9.34109 8.26662 9.51114L14.7466 16L8.25773 22.48C8.16468 22.5597 8.0891 22.6578 8.03575 22.7681C7.9824 22.8783 7.95241 22.9985 7.94768 23.1209C7.94296 23.2433 7.96358 23.3654 8.00827 23.4794C8.05296 23.5935 8.12075 23.6971 8.20737 23.7837C8.294 23.8703 8.3976 23.9381 8.51166 23.9828C8.62573 24.0275 8.7478 24.0481 8.87022 24.0434C8.99264 24.0387 9.11275 24.0087 9.22303 23.9553C9.33331 23.902 9.43137 23.8264 9.51106 23.7334L15.9999 17.2534L22.4799 23.7334C22.65 23.879 22.8687 23.9551 23.0924 23.9464C23.3162 23.9378 23.5284 23.8451 23.6867 23.6868C23.845 23.5284 23.9377 23.3162 23.9464 23.0925C23.955 22.8688 23.8789 22.6501 23.7333 22.48L17.2533 16Z" fill="#443296"/>
</svg>
