<svg width="21" height="22" viewBox="0 0 21 22" fill="none" xmlns="http://www.w3.org/2000/svg">
<path fill-rule="evenodd" clip-rule="evenodd" d="M11.7169 14.2914C12.9209 14.2914 13.9009 15.2644 13.9009 16.4604V19.5364C13.9009 19.7934 14.1069 19.9994 14.3709 20.0054H16.2769C17.7789 20.0054 18.9999 18.7994 18.9999 17.3174V8.59337C18.9929 8.08337 18.7499 7.60337 18.3329 7.28437L11.7399 2.02637C10.8549 1.32537 9.61688 1.32537 8.72888 2.02837L2.18088 7.28237C1.74788 7.61137 1.50488 8.09137 1.49988 8.61037V17.3174C1.49988 18.7994 2.72088 20.0054 4.22288 20.0054H6.14688C6.41788 20.0054 6.63788 19.7904 6.63788 19.5264C6.63788 19.4684 6.64488 19.4104 6.65688 19.3554V16.4604C6.65688 15.2714 7.63088 14.2994 8.82588 14.2914H11.7169ZM16.2769 21.5054H14.3529C13.2509 21.4794 12.4009 20.6144 12.4009 19.5364V16.4604C12.4009 16.0914 12.0939 15.7914 11.7169 15.7914H8.83088C8.46188 15.7934 8.15688 16.0944 8.15688 16.4604V19.5264C8.15688 19.6014 8.14688 19.6734 8.12588 19.7414C8.01788 20.7314 7.17188 21.5054 6.14688 21.5054H4.22288C1.89388 21.5054 -0.00012207 19.6264 -0.00012207 17.3174V8.60337C0.00987793 7.60937 0.467878 6.69937 1.25888 6.10037L7.79388 0.855372C9.23288 -0.284628 11.2379 -0.284628 12.6739 0.853372L19.2559 6.10337C20.0289 6.69237 20.4869 7.60037 20.4999 8.58237V17.3174C20.4999 19.6264 18.6059 21.5054 16.2769 21.5054Z" fill="white"/>
</svg>
