<svg width="32" height="33" viewBox="0 0 32 33" fill="none" xmlns="http://www.w3.org/2000/svg">
<path d="M18.2004 21.896C16.3524 20.62 14.4604 19.96 12.4804 19.96C10.5004 19.96 8.60843 20.62 6.76043 21.896C5.92443 22.468 5.44043 23.436 5.44043 24.404V25.24C5.44043 25.988 8.60843 26.56 12.4804 26.56C16.3524 26.56 19.5204 25.988 19.5204 25.24V24.404C19.5204 23.392 19.0364 22.468 18.2004 21.896Z" stroke="#2D3161" stroke-width="0.88" stroke-miterlimit="10" stroke-linejoin="round"/>
<path d="M25.6804 5.44H14.2404C13.7564 5.44 13.3604 5.836 13.3604 6.32V15.12C13.3604 15.604 13.7564 16 14.2404 16H18.2004V19.08L21.2804 16H25.6804C26.1644 16 26.5604 15.604 26.5604 15.12V6.32C26.5604 5.836 26.1644 5.44 25.6804 5.44Z" stroke="#2D3161" stroke-width="0.88" stroke-miterlimit="10" stroke-linejoin="round"/>
<path d="M13.36 11.732C13.096 11.644 12.788 11.6 12.48 11.6C10.544 11.6 8.95996 13.316 8.95996 15.428C8.95996 17.54 10.368 19.96 12.48 19.96C14.416 19.96 15.736 17.936 15.956 16" stroke="#2D3161" stroke-width="0.88" stroke-miterlimit="10" stroke-linejoin="round"/>
<path d="M16.4404 8.52002H23.4804" stroke="#2D3161" stroke-width="0.88" stroke-miterlimit="10" stroke-linejoin="round"/>
<path d="M16.4404 10.72H23.4804" stroke="#2D3161" stroke-width="0.88" stroke-miterlimit="10" stroke-linejoin="round"/>
<path d="M16.4404 12.92H23.4804" stroke="#2D3161" stroke-width="0.88" stroke-miterlimit="10" stroke-linejoin="round"/>
</svg>
