<svg width="33" height="33" viewBox="0 0 33 33" fill="none" xmlns="http://www.w3.org/2000/svg">
<path d="M15.8587 8.94583C17.1223 8.94468 18.3578 9.31832 19.409 10.0195C20.4602 10.7207 21.2798 11.7178 21.7642 12.8849C22.2485 14.052 22.3758 15.3365 22.13 16.5759C21.8842 17.8153 21.2763 18.954 20.3833 19.8479C19.4902 20.7418 18.3521 21.3507 17.1128 21.5977C15.8736 21.8446 14.589 21.7185 13.4215 21.2352C12.254 20.7519 11.2561 19.9332 10.554 18.8826C9.85183 17.8321 9.47706 16.5969 9.47706 15.3333C9.48472 13.6426 10.1593 12.0233 11.3543 10.8272C12.5493 9.63114 14.168 8.95504 15.8587 8.94583ZM15.8587 7.75C14.3589 7.75 12.8927 8.19475 11.6457 9.02802C10.3986 9.86129 9.42661 11.0456 8.85264 12.4313C8.27868 13.817 8.1285 15.3417 8.42111 16.8128C8.71371 18.2838 9.43595 19.635 10.4965 20.6956C11.557 21.7561 12.9083 22.4784 14.3793 22.771C15.8503 23.0636 17.3751 22.9134 18.7607 22.3394C20.1464 21.7655 21.3308 20.7935 22.164 19.5464C22.9973 18.2993 23.4421 16.8332 23.4421 15.3333C23.4421 13.3221 22.6431 11.3933 21.221 9.97111C19.7988 8.54896 17.87 7.75 15.8587 7.75Z" fill="#2D3161"/>
<path d="M26.7496 25.4192L22.4504 21.0908L21.6221 21.9133L25.9212 26.2417C25.9752 26.296 26.0394 26.3393 26.1101 26.3688C26.1809 26.3984 26.2567 26.4138 26.3333 26.4141C26.41 26.4143 26.4859 26.3995 26.5569 26.3704C26.6278 26.3413 26.6923 26.2986 26.7467 26.2446C26.801 26.1906 26.8443 26.1264 26.8738 26.0557C26.9034 25.985 26.9188 25.9091 26.9191 25.8325C26.9193 25.7558 26.9045 25.6799 26.8754 25.609C26.8463 25.538 26.8036 25.4735 26.7496 25.4192Z" fill="#2D3161"/>
</svg>
