<svg width="50" height="50" viewBox="0 0 50 50" fill="none" xmlns="http://www.w3.org/2000/svg">
<path d="M19.8694 10.1309H29.2607" stroke="#E0E0E0" stroke-width="2" stroke-miterlimit="10" stroke-linecap="round" stroke-linejoin="round"/>
<path d="M8.13062 13.2608H41.0002" stroke="#E0E0E0" stroke-width="2" stroke-miterlimit="10" stroke-linejoin="round"/>
<path d="M18.3044 34.3919H30.8262" stroke="#E0E0E0" stroke-width="2" stroke-miterlimit="10" stroke-linecap="round" stroke-linejoin="round"/>
<path d="M34.7393 39.0873V41.4351C34.7393 42.296 35.4436 43.0003 36.3045 43.0003H37.8697C38.7306 43.0003 39.4349 42.296 39.4349 41.4351V39.0873" stroke="#E0E0E0" stroke-width="2" stroke-miterlimit="10" stroke-linejoin="round"/>
<path d="M9.69556 39.0873V41.4351C9.69556 42.296 10.3999 43.0003 11.2608 43.0003H12.826C13.6869 43.0003 14.3912 42.296 14.3912 41.4351V39.0873" stroke="#E0E0E0" stroke-width="2" stroke-miterlimit="10" stroke-linejoin="round"/>
<path d="M12.0435 35.9569C12.9079 35.9569 13.6087 35.2561 13.6087 34.3917C13.6087 33.5272 12.9079 32.8265 12.0435 32.8265C11.179 32.8265 10.4783 33.5272 10.4783 34.3917C10.4783 35.2561 11.179 35.9569 12.0435 35.9569Z" stroke="#E0E0E0" stroke-width="2" stroke-miterlimit="10" stroke-linejoin="round"/>
<path d="M37.0869 35.9569C37.9514 35.9569 38.6522 35.2561 38.6522 34.3917C38.6522 33.5272 37.9514 32.8265 37.0869 32.8265C36.2225 32.8265 35.5217 33.5272 35.5217 34.3917C35.5217 35.2561 36.2225 35.9569 37.0869 35.9569Z" stroke="#E0E0E0" stroke-width="2" stroke-miterlimit="10" stroke-linejoin="round"/>
<path d="M39.435 39.087H9.69583C8.83496 39.087 8.13062 38.3826 8.13062 37.5217V11.6957C8.13062 9.11304 10.2437 7 12.8263 7H36.3045C38.8871 7 41.0002 9.11304 41.0002 11.6957V37.5217C41.0002 38.3826 40.2958 39.087 39.435 39.087Z" stroke="#E0E0E0" stroke-width="2" stroke-miterlimit="10" stroke-linejoin="round"/>
<path d="M8.13043 22.6523H6.56522C5.70435 22.6523 5 21.948 5 21.0871V16.3915C5 15.5306 5.70435 14.8262 6.56522 14.8262H8.13043" stroke="#E0E0E0" stroke-width="2" stroke-miterlimit="10" stroke-linejoin="round"/>
<path d="M41 14.8262H42.5652C43.4261 14.8262 44.1304 15.5306 44.1304 16.3915V21.0871C44.1304 21.948 43.4261 22.6523 42.5652 22.6523H41" stroke="#E0E0E0" stroke-width="2" stroke-miterlimit="10" stroke-linejoin="round"/>
<path d="M8.13062 27.3479L9.30453 27.7392C10.0871 27.974 10.948 28.1305 11.8089 28.1305H37.4784C38.3393 28.1305 39.1219 27.974 39.9828 27.7392L41.1567 27.3479" stroke="#E0E0E0" stroke-width="2" stroke-miterlimit="10" stroke-linecap="round" stroke-linejoin="round"/>
</svg>
