<svg width="50" height="50" viewBox="0 0 50 50" fill="none" xmlns="http://www.w3.org/2000/svg">
<path d="M41.7314 32.9584V26.2604C41.7314 25.6122 41.5873 24.892 41.3713 24.3158L37.7702 14.8089C37.122 13.1524 35.5375 12 33.7369 12H16.6677C14.8671 12 13.2826 13.0803 12.6344 14.8089L9.03333 24.3158C8.81726 24.964 8.67322 25.6122 8.67322 26.2604V32.9584C8.67322 33.7507 9.32142 34.3989 10.1137 34.3989H40.363C41.0832 34.3989 41.7314 33.7507 41.7314 32.9584Z" stroke="#E0E0E0" stroke-width="2" stroke-miterlimit="10" stroke-linecap="round" stroke-linejoin="round"/>
<path d="M8.60107 32.9582V36.5593C8.60107 37.3515 9.24927 37.9997 10.0415 37.9997H12.2022C12.9944 37.9997 13.6426 37.3515 13.6426 36.5593V34.3986" stroke="#E0E0E0" stroke-width="2" stroke-miterlimit="10"/>
<path d="M41.7312 32.9582V36.5593C41.7312 37.3515 41.083 37.9997 40.2908 37.9997H38.1301C37.3379 37.9997 36.6897 37.3515 36.6897 36.5593V34.3986" stroke="#E0E0E0" stroke-width="2" stroke-miterlimit="10"/>
<path d="M10.0415 22.1548L11.1218 22.515C11.8421 22.731 12.6343 22.8751 13.4266 22.8751H37.0498C37.8421 22.8751 38.5623 22.731 39.3545 22.515L40.2908 22.1548" stroke="#E0E0E0" stroke-width="2" stroke-miterlimit="10" stroke-linecap="round" stroke-linejoin="round"/>
<path d="M15.8033 29.3571H12.9224C11.698 29.3571 10.7617 28.4208 10.7617 27.1964C10.7617 26.7643 11.0498 26.4762 11.4819 26.4762H14.3628C15.5872 26.4762 16.5235 27.4125 16.5235 28.6369C16.5235 29.069 16.2354 29.3571 15.8033 29.3571Z" stroke="#E0E0E0" stroke-width="2" stroke-miterlimit="10"/>
<path d="M30.928 31.5177H19.4044" stroke="#E0E0E0" stroke-width="2" stroke-miterlimit="10" stroke-linecap="round"/>
<path d="M37.4099 29.3571H34.5291C34.0969 29.3571 33.8088 29.069 33.8088 28.6369C33.8088 27.4125 34.7451 26.4762 35.9695 26.4762H38.8504C39.2825 26.4762 39.5706 26.7643 39.5706 27.1964C39.5706 28.4208 38.6343 29.3571 37.4099 29.3571Z" stroke="#E0E0E0" stroke-width="2" stroke-miterlimit="10"/>
<path d="M9.32133 21.4346H6.80055C5.79224 21.4346 5 20.6424 5 19.634C5 19.0579 5.50416 18.5537 6.08033 18.5537H8.241C8.81717 18.5537 9.32133 19.0579 9.32133 19.634V21.4346Z" stroke="#E0E0E0" stroke-width="2" stroke-miterlimit="10"/>
<path d="M41.0111 21.4346H43.5319C44.5402 21.4346 45.3324 20.6424 45.3324 19.634C45.3324 19.0579 44.8283 18.5537 44.2521 18.5537H42.0914C41.5153 18.5537 41.0111 19.0579 41.0111 19.634V21.4346Z" stroke="#E0E0E0" stroke-width="2" stroke-miterlimit="10"/>
</svg>
