<svg width="50" height="50" viewBox="0 0 50 50" fill="none" xmlns="http://www.w3.org/2000/svg">
<path d="M37.1955 37.2549C41.4494 37.2549 44.8979 33.5971 44.8979 29.085C44.8979 24.5728 41.4494 20.915 37.1955 20.915C32.9415 20.915 29.493 24.5728 29.493 29.085C29.493 33.5971 32.9415 37.2549 37.1955 37.2549Z" stroke="#E0E0E0" stroke-width="2" stroke-miterlimit="10"/>
<path d="M12.8045 37.2549C17.0584 37.2549 20.5069 33.5971 20.5069 29.085C20.5069 24.5728 17.0584 20.915 12.8045 20.915C8.55055 20.915 5.10205 24.5728 5.10205 29.085C5.10205 33.5971 8.55055 37.2549 12.8045 37.2549Z" stroke="#E0E0E0" stroke-width="2" stroke-miterlimit="10"/>
<path d="M37.1955 29.085L31.4187 12.7451H28.2094" stroke="#E0E0E0" stroke-width="2" stroke-miterlimit="10" stroke-linecap="round" stroke-linejoin="round"/>
<path d="M19.2232 14.1068H14.0883" stroke="#E0E0E0" stroke-width="2" stroke-miterlimit="10" stroke-linecap="round"/>
<path d="M16.6557 14.1068L24.3581 29.085H12.8044L18.0678 16.8301H32.895L24.3581 29.085" stroke="#E0E0E0" stroke-width="2" stroke-miterlimit="10" stroke-linecap="round" stroke-linejoin="round"/>
</svg>
