<svg width="50" height="50" viewBox="0 0 50 50" fill="none" xmlns="http://www.w3.org/2000/svg">
<path d="M39.4725 38.0995C42.3165 38.0995 44.6221 35.794 44.6221 32.9499C44.6221 30.1059 42.3165 27.8003 39.4725 27.8003C36.6284 27.8003 34.3229 30.1059 34.3229 32.9499C34.3229 35.794 36.6284 38.0995 39.4725 38.0995Z" stroke="#E0E0E0" stroke-width="2" stroke-miterlimit="10"/>
<path d="M39.4725 35.5246C40.8945 35.5246 42.0473 34.3718 42.0473 32.9498C42.0473 31.5278 40.8945 30.375 39.4725 30.375C38.0505 30.375 36.8977 31.5278 36.8977 32.9498C36.8977 34.3718 38.0505 35.5246 39.4725 35.5246Z" stroke="#E0E0E0" stroke-width="2" stroke-miterlimit="10"/>
<path d="M29.817 32.3065H20.8052L19.5177 31.0191H6C6 23.9384 11.1496 22.651 11.1496 22.651V21.3636C11.1496 20.2693 11.9864 19.4325 13.0807 19.4325H23.38C24.4743 19.4325 25.3111 20.2693 25.3111 21.3636V21.7498C25.3111 22.2648 25.118 22.7798 24.7317 23.1016C23.9593 23.8097 22.7363 25.2902 22.7363 27.0926C22.7363 29.6674 24.6674 30.3111 25.9548 30.3111C27.2422 30.3111 27.3065 30.3111 28.7227 30.3111C32.0056 30.3111 33.6792 28.3156 33.6792 25.1614C33.6792 22.5866 32.5849 20.2049 29.817 13.8967C29.817 13.8967 29.817 13.6392 29.817 13.5748C29.817 11.6437 32.263 11 33.293 11H34.001C34.516 11 34.9666 11.4506 34.9666 11.9656V14.5404C34.9666 15.0553 34.516 15.5059 34.001 15.5059H33.0355L37.5414 24.5177C42.691 24.5177 44.6221 27.7363 44.6221 27.7363C44.6221 27.7363 40.7599 27.7363 39.4725 27.7363" stroke="#E0E0E0" stroke-width="2" stroke-miterlimit="10" stroke-linecap="round" stroke-linejoin="round"/>
<path d="M8.31726 31.0189C8.05977 31.5982 7.93103 32.2419 7.93103 32.95C7.93103 35.7823 10.2484 38.0996 13.0806 38.0996C15.9129 38.0996 18.2303 35.7823 18.2303 32.95C18.2303 32.2419 18.1015 31.5982 17.844 31.0189" stroke="#E0E0E0" stroke-width="2" stroke-miterlimit="10"/>
<path d="M11.407 31.0189C10.8921 31.4695 10.5059 32.1775 10.5059 32.95C10.5059 34.3661 11.6645 35.5248 13.0807 35.5248C14.4968 35.5248 15.6555 34.3661 15.6555 32.95C15.6555 32.1775 15.3336 31.4695 14.7543 31.0189" stroke="#E0E0E0" stroke-width="2" stroke-miterlimit="10"/>
<path d="M15.0117 23.9379C19.7751 23.9379 21.1913 27.6713 19.5176 31.0186" stroke="#E0E0E0" stroke-width="2" stroke-miterlimit="10" stroke-linecap="round" stroke-linejoin="round"/>
<path d="M31.1045 13.6392H27.886" stroke="#E0E0E0" stroke-width="2" stroke-miterlimit="10" stroke-linecap="round"/>
<path d="M36.4472 28.7662C34.4517 30.0536 33.5505 32.3065 29.817 32.3065" stroke="#E0E0E0" stroke-width="2" stroke-miterlimit="10" stroke-linecap="round" stroke-linejoin="round"/>
</svg>
