<svg width="50" height="50" viewBox="0 0 50 50" fill="none" xmlns="http://www.w3.org/2000/svg">
<path d="M6 44C8.05833 44 8.69167 41.625 10.75 41.625C12.8083 41.625 13.4417 44 15.5 44C17.5583 44 18.1917 41.625 20.25 41.625C22.3083 41.625 22.9417 44 25 44C27.0583 44 27.6917 41.625 29.75 41.625C31.8083 41.625 32.4417 44 34.5 44C36.5583 44 37.1917 41.625 39.25 41.625C41.3083 41.625 41.9417 44 44 44" stroke="#E0E0E0" stroke-width="2" stroke-miterlimit="10" stroke-linecap="round" stroke-linejoin="round"/>
<path d="M6 40.0417C8.05833 40.0417 8.69167 37.6667 10.75 37.6667C12.8083 37.6667 13.4417 40.0417 15.5 40.0417C17.5583 40.0417 18.1917 37.6667 20.25 37.6667C22.3083 37.6667 22.9417 40.0417 25 40.0417C27.0583 40.0417 27.6917 37.6667 29.75 37.6667C31.8083 37.6667 32.4417 40.0417 34.5 40.0417C36.5583 40.0417 37.1917 37.6667 39.25 37.6667C41.3083 37.6667 41.9417 40.0417 44 40.0417" stroke="#E0E0E0" stroke-width="2" stroke-miterlimit="10" stroke-linecap="round" stroke-linejoin="round"/>
<path d="M8.05834 39.0917L6 32.125H44L39.25 37.6667" stroke="#E0E0E0" stroke-width="2" stroke-miterlimit="10" stroke-linecap="round" stroke-linejoin="round"/>
<path d="M21.0416 28.9583V6L11.5416 28.9583H21.0416Z" stroke="#E0E0E0" stroke-width="2" stroke-miterlimit="10" stroke-linecap="round" stroke-linejoin="round"/>
<path d="M23.4166 6C23.4166 6 38.4583 13.5208 38.4583 28.9583H23.4166C28.8791 18.1917 23.4166 6 23.4166 6Z" stroke="#E0E0E0" stroke-width="2" stroke-miterlimit="10" stroke-linecap="round" stroke-linejoin="round"/>
</svg>
