<svg width="50" height="50" viewBox="0 0 50 50" fill="none" xmlns="http://www.w3.org/2000/svg">
<path d="M26.0487 11.5C27.8536 11.5 29.3167 10.0449 29.3167 8.25001C29.3167 6.45508 27.8536 5 26.0487 5C24.2439 5 22.7808 6.45508 22.7808 8.25001C22.7808 10.0449 24.2439 11.5 26.0487 11.5Z" stroke="#443296" stroke-width="2" stroke-miterlimit="10"/>
<path d="M26.2937 27.8313L27.9277 17.7563C28.2545 15.8062 26.7022 14.0187 24.7414 14.0187H22.7806C22.3721 14.0187 22.0453 14.1812 21.7185 14.425L15.9995 19.3C15.8361 19.4625 15.6727 19.625 15.591 19.8688L13.1401 25.475C12.8133 26.2875 13.0584 27.2625 13.8754 27.6688C14.1205 27.75 14.3656 27.8313 14.6107 27.8313C15.2642 27.8313 15.8361 27.425 16.0812 26.8563L18.3688 21.4938L21.1466 19.1375" stroke="#443296" stroke-width="2" stroke-miterlimit="10" stroke-linecap="round" stroke-linejoin="round"/>
<path d="M20.3301 24.7438L18.7778 34.4126L13.3856 41.3188C12.8954 41.9688 12.8954 42.9438 13.4673 43.5126C13.7941 43.8376 14.2026 44.0001 14.6928 44.0001C15.183 44.0001 15.6732 43.7564 16 43.3501L21.6373 36.1188C21.8824 35.8751 22.0458 35.5501 22.1275 35.1438L23.2713 30.025" stroke="#443296" stroke-width="2" stroke-miterlimit="10" stroke-linecap="round" stroke-linejoin="round"/>
<path d="M21.2282 19.0566L20.3295 24.7441C20.1661 25.6379 20.4112 26.5316 20.9831 27.2629L27.0289 34.9816L29.3981 42.8629C29.6432 43.5942 30.2968 44.0004 30.9504 44.0004C31.1955 44.0004 31.4406 43.9192 31.6857 43.8379C32.421 43.4317 32.6661 42.6192 32.421 41.8067C31.8491 39.9379 30.3785 35.1441 30.0517 33.8441C29.97 33.6004 29.8883 33.4379 29.8066 33.2754L26.2936 27.8316" stroke="#443296" stroke-width="2" stroke-miterlimit="10" stroke-linecap="round" stroke-linejoin="round"/>
<path d="M27.5193 20.4381L29.7252 23.0382C29.8886 23.2819 30.2154 23.4444 30.4605 23.5257L35.3625 25.1507C35.5259 25.3132 35.6893 25.3132 35.8527 25.3132C36.5063 25.3132 37.1599 24.9069 37.405 24.1757C37.6501 23.3632 37.2416 22.3882 36.3429 22.1444L31.8494 20.6819L27.1108 15.0756" stroke="#443296" stroke-width="2" stroke-miterlimit="10"/>
</svg>
