<svg width="10" height="16" viewBox="0 0 10 16" fill="none" xmlns="http://www.w3.org/2000/svg">
<path d="M2.52005 0.359C2.55052 0.255329 2.61376 0.164319 2.70029 0.0996C2.78682 0.0348812 2.89199 -6.31864e-05 3.00005 8.57716e-08H7.00005C7.07923 6.01937e-05 7.15727 0.018926 7.22774 0.0550444C7.2982 0.0911628 7.35908 0.143501 7.40537 0.20775C7.45165 0.271999 7.48201 0.346322 7.49395 0.424601C7.50589 0.502879 7.49907 0.582874 7.47405 0.658L5.69405 6H9.50005C9.59368 5.99994 9.68545 6.02616 9.76491 6.0757C9.84437 6.12523 9.90832 6.19608 9.94949 6.28019C9.99065 6.36429 10.0074 6.45825 9.99775 6.55139C9.98812 6.64453 9.95254 6.73309 9.89505 6.807L2.89505 15.807C2.82334 15.8996 2.72137 15.9642 2.60695 15.9893C2.49252 16.0144 2.3729 15.9986 2.26897 15.9446C2.16503 15.8905 2.08337 15.8017 2.03824 15.6935C1.99311 15.5854 1.98738 15.4649 2.02205 15.353L3.82305 9.5H0.500049C0.422313 9.50005 0.345638 9.48197 0.276112 9.4472C0.206587 9.41243 0.146126 9.36192 0.0995312 9.2997C0.0529366 9.23748 0.0214921 9.16525 0.00769475 9.08875C-0.0061026 9.01225 -0.00187272 8.93358 0.0200486 8.859L2.52005 0.359Z" fill="#FDCF00"/>
</svg>
